HIERARCHY
ROOT hip
{
	OFFSET	0.00  0.00  0.00 
	CHANNELS 6 Xposition Yposition Zposition Xrotation Zrotation Yrotation
	JOINT waist
	{
		OFFSET	0.000000 2.191865 -0.079388
		CHANNELS 3 Xrotation Zrotation Yrotation
		JOINT abdomen
		{
			OFFSET	0.000000 2.770984 0.119082
			CHANNELS 3 Xrotation Zrotation Yrotation
			JOINT chest
			{
				OFFSET	0.000000 2.879627 -0.290598
				CHANNELS 3 Xrotation Zrotation Yrotation
				JOINT neck
				{
					OFFSET	0.000000 12.342733 -1.613748
					CHANNELS 3 Xrotation Zrotation Yrotation
					JOINT head
					{
						OFFSET	0.000000 4.485597 1.807195
						CHANNELS 3 Xrotation Zrotation Yrotation
						End Site
						{
							OFFSET 0.000000 7.191734 2.024398
						}
					}
				}
				JOINT lCollar
				{
					OFFSET	1.858774 10.237258 -1.915852
					CHANNELS 3 Zrotation Yrotation Xrotation
					JOINT lShldr
					{
						OFFSET	6.103279 0.000102 -0.038601
						CHANNELS 3 Zrotation Yrotation Xrotation
						JOINT lForeArm
						{
							OFFSET	10.574100 -0.365985 -0.655940
							CHANNELS 3 Zrotation Yrotation Xrotation
							JOINT lHand
							{
								OFFSET	13.213392 -0.641131 0.276866
								CHANNELS 3 Zrotation Yrotation Xrotation
								JOINT lThumb1
								{
									OFFSET	1.920964 -1.225712 1.722395
									CHANNELS 3 Zrotation Yrotation Xrotation
									JOINT lThumb2
									{
										OFFSET	0.248544 -0.143036 0.768265
										CHANNELS 3 Zrotation Yrotation Xrotation
										JOINT lThumb3
										{
											OFFSET	0.628484 -0.225174 0.508305
											CHANNELS 3 Zrotation Yrotation Xrotation
											End Site
											{
												OFFSET 0.831712 -0.207978 0.609962
											}
										}
									}
								}
								JOINT lIndex1
								{
									OFFSET	5.093442 -0.710319 1.829884
									CHANNELS 3 Zrotation Yrotation Xrotation
									JOINT lIndex2
									{
										OFFSET	0.889470 -0.051998 0.127073
										CHANNELS 3 Zrotation Yrotation Xrotation
										JOINT lIndex3
										{
											OFFSET	0.889570 -0.155981 0.127073
											CHANNELS 3 Zrotation Yrotation Xrotation
											End Site
											{
												OFFSET 0.797115 -0.294470 0.076252
											}
										}
									}
								}
								JOINT lMid1
								{
									OFFSET	5.154641 -0.519844 0.864111
									CHANNELS 3 Zrotation Yrotation Xrotation
									JOINT lMid2
									{
										OFFSET	0.928821 -0.051992 0.050831
										CHANNELS 3 Zrotation Yrotation Xrotation
										JOINT lMid3
										{
											OFFSET	0.984253 -0.311865 0.050831
											CHANNELS 3 Zrotation Yrotation Xrotation
											End Site
											{
												OFFSET 0.779717 -0.606438 -0.050831
											}
										}
									}
								}
								JOINT lRing1
								{
									OFFSET	4.924408 -0.754930 -0.235503
									CHANNELS 3 Zrotation Yrotation Xrotation
									JOINT lRing2
									{
										OFFSET	0.981624 -0.036924 -0.108278
										CHANNELS 3 Zrotation Yrotation Xrotation
										JOINT lRing3
										{
											OFFSET	0.805613 -0.205247 -0.041717
											CHANNELS 3 Zrotation Yrotation Xrotation
											End Site
											{
												OFFSET 0.667431 -0.470481 -0.035991
											}
										}
									}
								}
								JOINT lPinky1
								{
									OFFSET	4.535460 -0.816635 -1.006206
									CHANNELS 3 Zrotation Yrotation Xrotation
									JOINT lPinky2
									{
										OFFSET	0.690596 -0.064334 -0.168800
										CHANNELS 3 Zrotation Yrotation Xrotation
										JOINT lPinky3
										{
											OFFSET	0.598039 -0.111176 -0.071973
											CHANNELS 3 Zrotation Yrotation Xrotation
											End Site
											{
												OFFSET 0.422025 -0.290925 -0.035981
											}
										}
									}
								}
							}
						}
					}
				}
				JOINT rCollar
				{
					OFFSET	-1.858774 10.237258 -1.915852
					CHANNELS 3 Zrotation Yrotation Xrotation
					JOINT rShldr
					{
						OFFSET	-6.103279 0.000102 -0.038601
						CHANNELS 3 Zrotation Yrotation Xrotation
						JOINT rForeArm
						{
							OFFSET	-10.574100 -0.365985 -0.655940
							CHANNELS 3 Zrotation Yrotation Xrotation
							JOINT rHand
							{
								OFFSET	-13.213392 -0.641131 0.276866
								CHANNELS 3 Zrotation Yrotation Xrotation
								JOINT rIndex1
								{
									OFFSET	-5.093442 -0.710319 1.829884
									CHANNELS 3 Zrotation Yrotation Xrotation
									JOINT rIndex2
									{
										OFFSET	-0.889470 -0.051998 0.127073
										CHANNELS 3 Zrotation Yrotation Xrotation
										JOINT rIndex3
										{
											OFFSET	-0.889570 -0.155981 0.127073
											CHANNELS 3 Zrotation Yrotation Xrotation
											End Site
											{
												OFFSET -0.797115 -0.294470 0.076252
											}
										}
									}
								}
								JOINT rThumb1
								{
									OFFSET	-1.920964 -1.225712 1.722395
									CHANNELS 3 Zrotation Yrotation Xrotation
									JOINT rThumb2
									{
										OFFSET	-0.248544 -0.143036 0.768265
										CHANNELS 3 Zrotation Yrotation Xrotation
										JOINT rThumb3
										{
											OFFSET	-0.628484 -0.225174 0.508305
											CHANNELS 3 Zrotation Yrotation Xrotation
											End Site
											{
												OFFSET -0.831712 -0.207978 0.609962
											}
										}
									}
								}
								JOINT rMid1
								{
									OFFSET	-5.154641 -0.519844 0.864111
									CHANNELS 3 Zrotation Yrotation Xrotation
									JOINT rMid2
									{
										OFFSET	-0.928821 -0.051992 0.050831
										CHANNELS 3 Zrotation Yrotation Xrotation
										JOINT rMid3
										{
											OFFSET	-0.984253 -0.311865 0.050831
											CHANNELS 3 Zrotation Yrotation Xrotation
											End Site
											{
												OFFSET -0.779717 -0.606438 -0.050831
											}
										}
									}
								}
								JOINT rRing1
								{
									OFFSET	-4.924408 -0.754930 -0.235503
									CHANNELS 3 Zrotation Yrotation Xrotation
									JOINT rRing2
									{
										OFFSET	-0.981624 -0.036924 -0.108278
										CHANNELS 3 Zrotation Yrotation Xrotation
										JOINT rRing3
										{
											OFFSET	-0.805613 -0.205247 -0.041717
											CHANNELS 3 Zrotation Yrotation Xrotation
											End Site
											{
												OFFSET -0.667431 -0.470481 -0.035991
											}
										}
									}
								}
								JOINT rPinky1
								{
									OFFSET	-4.535460 -0.816635 -1.006206
									CHANNELS 3 Zrotation Yrotation Xrotation
									JOINT rPinky2
									{
										OFFSET	-0.690596 -0.064334 -0.168800
										CHANNELS 3 Zrotation Yrotation Xrotation
										JOINT rPinky3
										{
											OFFSET	-0.598039 -0.111176 -0.071973
											CHANNELS 3 Zrotation Yrotation Xrotation
											End Site
											{
												OFFSET -0.422025 -0.290925 -0.035981
											}
										}
									}
								}
							}
						}
					}
				}
			}
		}
	}
	JOINT lThigh
	{
		OFFSET	5.761895 -0.730553 0.000101
		CHANNELS 3 Xrotation Zrotation Yrotation
		JOINT lShin
		{
			OFFSET	-1.171020 -18.459274 1.627449
			CHANNELS 3 Xrotation Zrotation Yrotation
			JOINT lFoot
			{
				OFFSET	-0.883715 -16.872776 -3.357785
				CHANNELS 3 Xrotation Zrotation Yrotation
				JOINT lToe
				{
					OFFSET	1.287613 -2.778491 2.836049
					CHANNELS 3 Xrotation Yrotation Zrotation
					End Site
					{
						OFFSET 1.362641 -0.436631 3.828194
					}
				}
			}
		}
	}
	JOINT rThigh
	{
		OFFSET	-5.761895 -0.730553 0.000101
		CHANNELS 3 Xrotation Zrotation Yrotation
		JOINT rShin
		{
			OFFSET	1.171020 -18.459274 1.627449
			CHANNELS 3 Xrotation Zrotation Yrotation
			JOINT rFoot
			{
				OFFSET	0.883715 -16.872776 -3.357785
				CHANNELS 3 Xrotation Zrotation Yrotation
				JOINT rToe
				{
					OFFSET	-1.287613 -2.778491 2.836049
					CHANNELS 3 Xrotation Yrotation Zrotation
					End Site
					{
						OFFSET -1.362641 -0.436631 3.828194
					}
				}
			}
		}
	}
}
MOTION
Frames:     5
Frame Time: 0.033333
-0.012647 38.895599 2.188768 3.190687 -1.017077 -4.257334 -1.425781 -0.010174 -0.009341 -1.718680 0.343577 0.342163 0.016563 -2.803908 8.659886 -0.197218 1.885309 -0.233671 1.392913 0.710475 -4.256761 -6.995804 -0.013449 0.553029 -74.094788 2.109466 9.517820 -0.000889 -4.896716 -0.237011 24.816174 10.796476 1.577340 -1.085579 14.994194 16.464102 0.922729 7.982076 2.298450 1.143080 12.883307 2.741511 -18.401417 5.016078 2.895674 -19.619864 0.224551 2.734616 -19.735565 -0.016741 1.775804 -18.823574 -0.613883 0.964666 -19.790804 0.010468 0.969080 -19.786854 0.163726 -1.069888 -18.584108 -5.745994 -1.702033 -19.788668 -0.055277 -1.005548 -19.794273 0.118414 -0.914460 -17.193794 -10.198771 -6.145637 -19.673935 -0.195127 -2.325986 -19.763691 0.179970 -1.447465 4.498472 -0.013378 -10.184809 78.033546 3.696058 30.206301 -0.398332 31.374989 6.608424 -5.138888 -11.086912 2.526766 23.471521 -5.286447 3.590234 31.055328 -0.805346 4.248461 37.964481 -0.530474 3.345803 -6.910779 -20.805281 13.980194 -0.760142 -6.648059 1.901676 -1.522521 -15.800728 3.422143 16.110872 0.624905 0.821609 42.503067 -0.454572 2.010464 24.546322 -0.165882 -1.320706 25.101183 5.960849 -2.265008 41.787880 0.481118 -2.020889 21.374884 -0.132109 -0.980275 37.234070 12.173188 -10.939369 24.510738 0.342982 -2.878090 23.056494 -0.179686 -1.682804 -21.046898 -2.338231 6.790689 -13.292468 -0.498079 0.884161 16.571775 1.264446 3.562593 -10.327234 2.707687 -5.368054 7.208235 6.272526 -4.335064 14.505224 0.021993 0.693770 7.921056 -10.612514 -1.214630 -30.336477 0.057408 -1.076093 
-0.012647 38.719574 2.188768 3.395795 -1.027193 -4.237982 -1.376953 0.000000 0.000000 -1.718755 0.397145 0.481213 -0.355234 -2.811649 8.731112 -0.202356 2.255016 -0.308966 1.486595 0.648919 -4.006244 -6.942482 -0.013541 -0.159553 -74.316986 2.161173 11.272569 -0.006351 -3.103519 -0.806151 24.215984 10.783369 1.601187 -1.085579 14.994194 16.464102 0.922729 7.982076 2.298450 1.143080 12.883307 2.741511 -18.410971 5.016477 2.896982 -19.629528 0.224896 2.735937 -19.745291 -0.016594 1.776679 -18.833326 -0.613727 0.965177 -19.800558 0.010560 0.969558 -19.796606 0.163717 -1.070418 -18.593748 -5.746279 -1.703849 -19.798420 -0.055385 -1.006029 -19.804029 0.118396 -0.914910 -17.202864 -10.199288 -6.147830 -19.683630 -0.195415 -2.327101 -19.773434 0.179938 -1.448180 4.393590 -0.011470 -8.152864 77.715698 4.137967 32.089550 -0.366568 30.410412 7.152624 -5.390292 -11.088717 2.513722 23.452425 -5.285425 3.587703 31.026369 -0.803547 4.244790 37.935326 -0.529238 3.343456 -6.910779 -20.805281 13.980194 -0.760142 -6.648059 1.901676 -1.522521 -15.800728 3.422143 16.081600 0.625301 0.820061 42.473816 -0.453767 2.009254 24.517067 -0.166040 -1.319120 25.072264 5.959712 -2.262605 41.758629 0.480275 -2.019669 21.345615 -0.132198 -0.978922 37.206898 12.169383 -10.933785 24.481661 0.341840 -2.874828 23.027264 -0.179907 -1.680662 -22.826412 -2.557775 6.977924 -4.329383 -0.397598 0.314430 4.906519 4.238845 2.949593 -9.288459 2.788778 -5.720804 9.679981 6.170109 -4.161745 15.996223 -0.078824 0.777002 18.286341 -7.959737 -3.864911 -36.291004 1.315187 -2.776728 
-0.012647 38.641766 2.188768 3.474155 -0.835959 -4.009882 -1.406250 0.000000 0.000000 -1.874908 0.362778 0.345742 -0.440834 -2.779280 8.440729 -0.195949 1.977284 0.255713 1.625460 0.648091 -3.539604 -6.805027 -0.013435 -0.275908 -74.570381 1.984607 15.819310 -0.009557 -1.088210 -0.847702 23.286703 10.763578 1.640202 -1.085579 14.994194 16.464102 0.922729 7.982076 2.298450 1.143080 12.883307 2.741511 -18.468283 5.018861 2.904824 -19.697180 0.227319 2.745220 -19.813372 -0.015565 1.782796 -18.891865 -0.612785 0.968241 -19.868835 0.011205 0.972901 -19.864876 0.163650 -1.074126 -18.651583 -5.747991 -1.708884 -19.866688 -0.056145 -1.009396 -19.872324 0.118269 -0.918061 -17.257292 -10.202406 -6.160990 -19.751486 -0.197432 -2.334898 -19.841625 0.179704 -1.453190 4.501348 -0.010107 -6.493354 77.178505 3.918522 32.402760 -0.306152 28.211273 7.400599 -6.192852 -11.094812 2.478131 23.337830 -5.279308 3.572520 30.891226 -0.795179 4.227651 37.799271 -0.523487 3.332494 -6.910779 -20.805281 13.980194 -0.760142 -6.648059 1.901676 -1.522521 -15.800728 3.422143 15.964521 0.626875 0.813866 42.337311 -0.450019 2.003598 24.380529 -0.166766 -1.311716 24.956583 5.955174 -2.252985 41.622135 0.476347 -2.013968 21.209026 -0.132605 -0.972606 37.098209 12.154188 -10.909369 24.355682 0.336913 -2.860628 22.890886 -0.180921 -1.670691 -24.148523 -3.337768 6.176655 3.853419 -0.273104 -0.168148 10.259083 5.307626 5.442431 -8.651820 2.835296 -5.938115 12.912702 6.077032 -3.589674 15.574098 -0.218700 0.784325 27.135702 -5.310436 -6.560831 -37.369820 1.562500 -3.071658 
-0.012647 38.687660 2.188768 3.298983 -0.407315 -3.406340 -1.542969 -0.010174 -0.009339 -2.119158 0.132823 0.193598 -0.241039 -2.710018 7.817391 -0.178922 1.694116 0.833400 1.821968 0.684305 -2.941338 -6.620161 -0.013255 -0.167361 -74.780106 1.584647 19.461273 -0.010031 0.971204 -1.239370 22.096136 10.739131 1.690129 -1.085579 14.994194 16.464102 0.922729 7.982076 2.298450 1.143080 12.883307 2.741511 -18.563801 5.022853 2.918745 -19.803488 0.231149 2.759739 -19.920351 -0.013932 1.792406 -18.989429 -0.611208 0.973347 -19.976120 0.012226 0.978153 -19.972157 0.163537 -1.079953 -18.747974 -5.750858 -1.717270 -19.973969 -0.057346 -1.014684 -19.979643 0.118063 -0.923012 -17.348009 -10.207628 -6.184645 -19.858114 -0.200621 -2.347145 -19.948782 0.179325 -1.461061 4.783423 -0.009045 -5.079081 76.472839 3.709923 31.445568 -0.236153 25.210377 7.410658 -7.469244 -11.105557 2.417953 23.137287 -5.268679 3.545024 30.678862 -0.782108 4.200676 37.575748 -0.514095 3.314457 -6.910779 -20.805281 13.980194 -0.760142 -6.648059 1.901676 -1.522521 -15.800728 3.422143 15.759627 0.629600 0.803017 42.113056 -0.443891 1.994289 24.156214 -0.167920 -1.299548 24.754143 5.947281 -2.236128 41.397892 0.469924 -2.004581 20.984634 -0.133240 -0.962229 36.908009 12.127708 -10.866064 24.132788 0.328270 -2.835584 22.666830 -0.182535 -1.654257 -23.407578 -4.301150 7.050694 8.759609 -0.261897 -0.432557 11.277389 5.967273 5.254488 -5.325206 3.038855 -7.077972 11.274774 5.766799 -3.485606 21.855164 -0.203244 1.091363 25.249653 -3.234324 -9.319431 -34.578960 0.934754 -2.300307 
-0.012647 38.835396 2.188768 3.075120 0.320307 -2.592283 -1.748047 -0.010592 -0.019096 -2.411949 -0.386735 0.156399 0.526021 -2.609020 6.908052 -0.217817 1.436032 0.611003 2.136175 0.749678 -2.239655 -6.403905 -0.013100 -0.390661 -74.941025 0.986134 20.831625 -0.009531 1.651031 -1.366732 20.702391 10.711812 1.748891 -1.085579 14.994194 16.464102 0.922729 7.982076 2.298450 1.143080 12.883307 2.741511 -18.687971 5.028075 2.935718 -19.948456 0.236416 2.779528 -20.066236 -0.011676 1.805507 -19.116261 -0.609146 0.979980 -20.122421 0.013635 0.985311 -20.118448 0.163364 -1.087898 -18.873287 -5.754606 -1.728167 -20.120260 -0.059000 -1.021892 -20.125982 0.117766 -0.929762 -17.465937 -10.214473 -6.214863 -20.003521 -0.205005 -2.363836 -20.094912 0.178785 -1.471793 5.191214 -0.008177 -3.870677 75.655960 3.246199 29.441700 -0.171605 21.836851 7.159278 -9.142148 -11.121584 2.342514 22.869888 -5.254652 3.509498 30.369957 -0.763276 4.161351 37.274471 -0.501548 3.290086 -6.910779 -20.805281 13.980194 -0.760142 -6.648059 1.901676 -1.522521 -15.800728 3.422143 15.496192 0.633046 0.789054 41.810787 -0.435688 1.981702 23.844130 -0.169447 -1.282613 24.493858 5.937222 -2.213402 41.095646 0.461324 -1.991890 20.682192 -0.134033 -0.948239 36.663460 12.093860 -10.811437 23.832359 0.316776 -2.801774 22.364847 -0.184609 -1.632097 -21.139023 -5.457029 5.950175 10.469345 -0.336064 -0.474609 7.034460 5.764611 5.616940 -0.135913 3.223349 -8.873044 7.619711 5.184916 -4.304698 28.120108 -0.158208 1.355154 24.208887 -1.822923 -13.182664 -31.017233 0.191800 -1.276473 
